<svg width="718" height="157" viewBox="0 0 718 157" fill="none" xmlns="http://www.w3.org/2000/svg">
<path d="M443.18 13.9859C442.751 13.5026 442.093 10.1596 441.717 6.55481L441.033 0H567.511C672.661 0 694.077 0.259364 694.513 1.54016C694.803 2.38679 694.664 5.60078 694.205 8.68109L693.371 14.2819L568.664 14.5721C500.075 14.732 443.608 14.4681 443.18 13.9859Z"/>
<path d="M520.444 41.8938C520.444 36.6564 520.718 32.0645 521.051 31.6875C521.386 31.3116 530.905 30.9551 542.206 30.8968C553.508 30.8385 563.506 31.1162 564.425 31.5138C565.793 32.1045 566.097 33.9737 566.097 41.8253V51.4147H560.53H554.964L554.697 89.4044L554.43 127.394H542.763H531.096L530.829 89.4044L530.562 51.4147H525.503H520.444V41.8938Z"/>
<path d="M0 156.529V149.674V142.819H76.5955C147.043 142.819 153.191 142.969 153.191 144.7C153.191 145.735 151.563 148.82 149.572 151.556L145.954 156.529H72.9768H0Z"/>
<path d="M155.457 150.485C156.704 148.467 158.373 145.917 159.166 144.818C160.352 143.173 162.284 142.819 170.088 142.819C177.345 142.819 179.568 143.178 179.568 144.353C179.568 145.196 178.505 148.153 177.207 150.923L174.844 155.958L164.018 156.282C156.799 156.498 153.191 156.198 153.191 155.379C153.191 154.703 154.211 152.502 155.457 150.485Z"/>
<path fill-rule="evenodd" clip-rule="evenodd" d="M474.579 32.5089C470.116 33.2676 465.943 34.6684 464.861 35.7709C463.818 36.8346 462.466 37.7041 461.856 37.7041C461.246 37.7041 458.657 40.0589 456.103 42.9359C453.548 45.8128 451.457 48.7286 451.457 49.4152C451.457 50.1019 450.821 51.4752 450.044 52.467C449.266 53.4599 447.609 58.8984 446.361 64.554C444.512 72.9346 444.208 76.6342 444.721 84.5486C445.067 89.89 446.208 96.9955 447.257 100.339C448.306 103.682 449.681 106.999 450.311 107.708C450.942 108.419 451.457 109.61 451.457 110.357C451.457 111.104 453.475 114.019 455.942 116.838C458.408 119.656 462.632 123.182 465.326 124.673C469.655 127.067 471.645 127.384 482.43 127.388C492.299 127.393 495.502 126.969 499.17 125.171C501.663 123.948 506.07 120.277 508.963 117.015C513.188 112.247 514.771 109.319 517.02 102.1C519.436 94.3437 519.824 91.3239 519.855 79.9784C519.883 70.1297 519.421 65.2647 518.014 60.5551C516.981 57.0989 515.735 53.782 515.246 53.1856C514.757 52.5892 514.357 51.4809 514.357 50.7246C514.357 49.9682 512.879 47.4695 511.073 45.1718C509.266 42.8741 505.568 39.4556 502.854 37.575C500.141 35.6943 495.342 33.656 492.19 33.0436C489.037 32.4312 485.545 31.7617 484.429 31.5549C483.313 31.3481 478.88 31.7777 474.579 32.5089ZM494.827 64.0056C493.572 61.2394 491.392 58.0312 489.985 56.8784C488.577 55.7256 485.838 54.535 483.898 54.2311C481.957 53.9283 478.953 54.399 477.222 55.2788C475.49 56.1574 473.185 58.3465 472.1 60.1438C471.015 61.941 469.578 64.8499 468.908 66.6071C468.238 68.3644 467.689 74.3913 467.689 79.9978C467.689 88.4024 468.128 91.2736 470.185 96.3386C472.315 101.584 473.324 102.761 477.067 104.371C479.479 105.408 482.215 106.257 483.146 106.257C484.079 106.257 486.118 105.638 487.678 104.881C489.238 104.124 491.237 102.697 492.118 101.711C492.999 100.724 494.482 97.3954 495.415 94.314C496.482 90.7869 497.11 85.0685 497.11 78.8747C497.11 70.9248 496.672 68.0719 494.827 64.0056Z"/>
<path fill-rule="evenodd" clip-rule="evenodd" d="M332.291 1.42819C332.068 2.21427 331.391 5.94126 330.785 9.71167C330.178 13.4821 329.235 20.6801 328.687 25.7073C328.139 30.7346 327.263 37.1614 326.738 39.9892C326.215 42.817 325.512 47.9585 325.176 51.4147C324.841 54.8709 324.147 59.2411 323.634 61.1263C323.122 63.0115 322.242 68.9242 321.681 74.2657C321.119 79.6071 319.962 88.6046 319.111 94.2603C318.259 99.9159 317.069 108.913 316.465 114.255C315.862 119.596 314.91 125.953 314.35 128.381L313.333 132.796L312.469 141.144C312.469 142.598 303.983 142.819 248.122 142.819H183.773L181.164 149.032C179.729 152.449 178.554 155.534 178.554 155.887C178.554 156.24 215.034 156.529 259.619 156.529H340.685L341.312 150.531C341.657 147.232 342.65 138.62 343.519 131.393C344.389 124.166 345.956 112.341 347.002 105.114C348.049 97.8879 349.192 88.4641 349.544 84.1727C349.896 79.8824 350.431 76.6479 350.731 76.9872C351.032 77.3254 351.661 79.5511 352.128 81.9322C352.596 84.3144 353.626 89.6044 354.417 93.689C355.208 97.7736 356.415 103.686 357.097 106.828C357.78 109.97 359.035 115.626 359.885 119.396C360.736 123.167 362.104 129.594 362.926 133.678C363.748 137.763 364.954 144.447 365.605 148.531L366.789 155.958L380.23 156.277C390.481 156.52 393.753 156.249 394.014 155.134C394.204 154.331 395.371 148.531 396.607 142.247C397.843 135.963 399.342 128.765 399.937 126.252C400.534 123.738 401.659 118.339 402.439 114.255C403.219 110.17 404.275 104.334 404.786 101.286C405.296 98.2386 406.154 94.1254 406.692 92.1454C407.229 90.1665 407.966 86.0728 408.33 83.0473C408.883 78.4497 409.229 77.7699 410.441 78.9033C411.316 79.7202 411.891 82.3549 411.89 85.5449C411.89 88.4539 412.545 94.9458 413.346 99.973C414.146 105 415.337 113.741 415.992 119.396C416.647 125.052 417.57 133.278 418.044 137.677C418.518 142.076 419.171 147.217 419.497 149.103C419.822 150.988 420.328 153.431 420.623 154.53C421.129 156.422 428.909 156.529 565.413 156.529H709.667L712.565 149.388C714.158 145.461 715.916 138.648 716.468 134.249C717.021 129.851 717.181 121.75 716.821 116.247C716.449 110.526 715.257 103.556 714.038 99.9662C712.865 96.5134 711.512 93.689 711.031 93.689C710.551 93.689 710.157 92.9623 710.157 92.0734C710.157 91.1857 707.673 87.6826 704.635 84.2892C701.508 80.7965 696.339 76.617 692.715 74.6541C689.195 72.7472 683.805 70.2336 680.736 69.0671C677.667 67.9017 674.129 65.9342 672.874 64.6945C671.544 63.3817 670.591 61.1287 670.591 59.2949C670.591 57.5639 671.334 55.3119 672.241 54.2905C673.148 53.2691 675.006 52.5892 676.372 52.7812C677.765 52.9766 679.456 54.3819 680.227 55.9849C680.983 57.5559 681.848 59.7416 682.152 60.8407C682.637 62.6048 684.189 62.8402 695.318 62.8402H707.935L707.407 57.9843C707.117 55.3142 705.908 50.8149 704.721 47.9871C703.535 45.1593 700.962 40.8735 699.005 38.465C697.048 36.0554 693.849 33.1648 691.896 32.0417C689.943 30.9185 685.344 29.4206 681.676 28.7122C676.81 27.7731 673.389 27.7617 669.027 28.6689C665.738 29.3544 661.346 30.8911 659.268 32.0851C657.19 33.279 653.756 36.5924 651.637 39.4465C649.518 42.3017 646.994 47.3198 646.028 50.5966C645.061 53.8746 644.259 58.5145 644.242 60.9081C644.227 63.3018 643.824 64.9893 643.349 64.658C642.873 64.3267 641.711 61.34 640.769 58.0209C639.825 54.7018 637.818 49.9717 636.308 47.5106C634.797 45.0496 630.867 40.9661 627.575 38.4365C622.61 34.6226 620.214 33.6127 613.542 32.5238C607.209 31.4898 603.867 31.5298 597.828 32.7123C593.609 33.5384 589.388 34.9997 588.446 35.9594C587.505 36.9192 586.251 37.7041 585.66 37.7041C585.068 37.7041 582.538 39.9766 580.035 42.7553C577.533 45.5328 574.545 50.0322 573.393 52.7526C572.242 55.473 570.586 61.6622 569.712 66.5055C568.84 71.3488 568.126 77.6739 568.126 80.5611C568.126 83.4495 568.851 89.5118 569.738 94.0352C570.623 98.5574 572.262 104.444 573.379 107.114C574.495 109.784 575.824 111.97 576.332 111.97C576.84 111.97 577.256 112.656 577.256 113.496C577.256 114.336 579.12 116.907 581.398 119.209C583.674 121.511 586.084 123.395 586.751 123.395C587.419 123.395 589.094 124.293 590.472 125.391C592.549 127.042 595.256 127.387 606.17 127.391C618.798 127.394 619.572 127.257 624.362 124.158C627.113 122.38 630.777 119.295 632.503 117.303C634.229 115.313 636.456 112.241 637.452 110.476C638.449 108.713 640.377 103.427 641.739 98.7299C643.604 92.2928 644.228 87.5981 644.271 79.6573L644.328 69.1242L646.073 73.964C647.033 76.6262 649.461 80.9964 651.469 83.6757C653.477 86.355 657.117 89.641 659.558 90.9778C661.999 92.3145 667.104 95.0943 670.903 97.1566C674.702 99.2189 679.846 103.233 682.335 106.077C684.824 108.919 687.54 112.779 688.37 114.652C689.199 116.526 690.385 121.188 691.006 125.012C691.736 129.504 691.812 133.783 691.222 137.106L690.31 142.247H569.632H448.955L446.827 129.108C445.656 121.881 444.129 111.856 443.434 106.828C442.739 101.801 441.809 94.346 441.367 90.2614C440.925 86.1767 440.057 79.7499 439.438 75.9795C438.819 72.2091 437.821 65.5252 437.219 61.1263C436.619 56.7275 435.687 49.0153 435.148 43.9881C434.61 38.9609 433.733 33.3053 433.199 31.4201C432.664 29.5349 431.776 23.6222 431.223 18.2808C430.67 12.9394 429.725 6.64162 429.123 4.28455L428.028 0H413.437H398.847L397.218 6.30917C396.322 9.77909 395.189 14.7914 394.699 17.449C394.209 20.1054 393.041 25.8787 392.102 30.2776C391.163 34.6764 389.923 40.8461 389.347 43.9881C388.772 47.1301 387.673 51.6398 386.907 54.0083C386.141 56.3779 385.514 59.3783 385.514 60.6773C385.514 61.9753 384.526 66.9773 383.317 71.7932C382.11 76.609 380.795 80.9759 380.397 81.4969C379.998 82.0179 379.155 79.4471 378.523 75.7841C377.892 72.1211 376.658 65.7822 375.783 61.6976C374.906 57.613 373.58 51.1862 372.836 47.4158C372.091 43.6454 370.734 37.4756 369.819 33.7052C368.904 29.9348 367.496 24.2334 366.69 21.0366C365.883 17.8397 365.224 14.203 365.224 12.9565C365.224 11.71 364.496 8.28463 363.607 5.34485L361.989 0H347.343C336.517 0 332.59 0.372477 332.291 1.42819ZM617.542 61.3389C615.984 59.0389 613.922 56.683 612.958 56.1014C611.994 55.521 609.615 54.7669 607.673 54.4264C605.731 54.0859 602.771 54.3784 601.097 55.0765C599.423 55.7746 597.369 57.3925 596.532 58.6721C595.695 59.9518 594.23 63.3406 593.277 66.2039C592.166 69.5435 591.549 74.6861 591.558 80.5497C591.568 86.5332 592.167 91.2805 593.292 94.2946C594.237 96.8264 595.703 99.9833 596.549 101.31C597.396 102.636 600.022 104.373 602.386 105.17C605.911 106.36 607.432 106.343 610.852 105.071C613.826 103.966 615.786 102.195 617.697 98.891C620.229 94.5093 620.373 93.4868 620.373 79.8893C620.373 65.9216 620.294 65.4018 617.542 61.3389Z"/>
<path fill-rule="evenodd" clip-rule="evenodd" d="M93.3349 80.1064V128.22L114.893 127.72C132.566 127.308 137.229 126.851 140.761 125.183C143.159 124.052 147.246 120.469 149.972 117.11C153.383 112.907 155.543 108.837 157.076 103.727C158.922 97.5736 159.278 93.7883 159.278 80.3508C159.278 66.1192 158.993 63.4331 156.745 56.4384C155.351 52.1048 153.381 47.3026 152.366 45.7671C151.352 44.2315 148.44 40.9877 145.896 38.5587C142.099 34.9357 140.108 33.9543 134.802 33.0905C131.245 32.5112 120.461 32.0267 110.835 32.0142L93.3349 31.9913V80.1064ZM129.165 55.545C127.276 54.5304 124.298 53.6998 122.548 53.6998C120.797 53.6998 118.53 52.8486 117.51 51.8088C115.717 49.9819 115.654 50.8697 115.654 78.0875V106.257H120.355C122.941 106.257 126.754 105.685 128.829 104.984C131.258 104.165 133.285 102.437 134.526 100.128C136.174 97.0618 136.452 94.2397 136.452 80.5497C136.452 66.8608 136.174 64.0375 134.526 60.9721C133.467 59.0012 131.055 56.5595 129.165 55.545Z" fill="#F70C13"/>
<path fill-rule="evenodd" clip-rule="evenodd" d="M313.5 134.566C311.517 132.138 304.58 121.403 302.7 118.269C300.82 115.136 299.281 112.116 299.281 111.558C299.281 111.002 297.201 107.264 294.659 103.253C292.118 99.2417 290.318 95.4485 290.661 94.8246C291.004 94.1997 291.775 93.689 292.376 93.689C292.976 93.689 294.507 92.4265 295.776 90.884C297.047 89.3405 299.021 86.1265 300.163 83.7431C301.305 81.3586 302.661 76.0651 303.174 71.9805C303.767 67.2618 303.735 61.6382 303.087 56.5561C302.526 52.1573 301.44 47.7471 300.673 46.7542C299.907 45.7624 299.281 44.4108 299.281 43.7516C299.281 43.0923 296.825 40.6484 293.826 38.3211C289.511 34.9746 286.911 33.8777 281.398 33.0779C277.563 32.5215 266.321 32.0496 256.417 32.029L238.41 31.9913L238.339 76.2651C238.299 100.616 237.898 121.567 237.445 122.824C236.763 124.721 236.501 124.333 235.899 120.539C235.5 118.025 234.572 113.398 233.837 110.256C233.101 107.114 231.97 102.23 231.323 99.4017C230.675 96.5739 229.771 91.9466 229.314 89.1188C228.856 86.291 227.801 80.6353 226.968 76.5507C226.136 72.4661 224.672 65.5251 223.717 61.1263C222.76 56.7275 221.369 50.3007 220.625 46.8445C219.88 43.3883 218.881 38.7609 218.404 36.5615L217.536 32.5626H201.85H186.163L185.82 35.9903C185.63 37.8755 185.058 39.9869 184.548 40.6827C184.037 41.3774 183.208 44.2052 182.705 46.9667C182.203 49.7271 181.33 53.5284 180.763 55.4136C180.198 57.2988 179.067 61.412 178.249 64.554C177.432 67.696 176.171 72.5804 175.446 75.4082C174.723 78.236 173.818 81.0638 173.437 81.6922C173.056 82.3206 172.444 85.0422 172.079 87.7409C171.713 90.4384 171.023 93.5233 170.545 94.5962C170.066 95.6679 168.962 99.3731 168.089 102.829C167.216 106.286 165.835 111.684 165.019 114.826C164.204 117.968 163.224 122.228 162.841 124.291L162.145 128.042L173.587 127.719L185.027 127.394L187.51 118.254C188.875 113.227 190.483 107.587 191.083 105.721L192.173 102.328L192.762 105.15C193.325 107.849 193.732 107.985 202.17 108.301C209.277 108.566 211.161 109.011 211.877 110.586C212.366 111.661 213.051 115.004 213.4 118.014C213.749 121.024 214.513 124.496 215.098 125.726C216.105 127.845 217.353 127.965 238.445 127.965H260.729V111.466C260.729 102.391 261.145 94.6761 261.654 94.3219C262.164 93.9677 264.099 95.8655 265.957 98.5391C267.815 101.213 269.685 103.915 270.113 104.543C270.541 105.172 272.632 108.256 274.759 111.398C276.885 114.54 279.726 119.168 281.071 121.681C282.415 124.195 284.21 127.166 285.058 128.282C285.905 129.398 287.552 132.226 288.716 134.566L290.835 138.82L301.651 139.144H313.5V134.566ZM277.318 57.6004C276.398 56.0191 274.366 53.9808 272.803 53.0702C271.239 52.1596 268.188 51.4147 266.021 51.4147C263.855 51.4147 261.777 51.7574 261.406 52.1767C261.033 52.5949 260.729 59.5359 260.729 67.6011V82.2635H264.59C267.13 82.2635 269.645 81.2717 271.938 79.366C273.856 77.7721 276.209 74.8163 277.165 72.7963C278.122 70.7763 278.924 67.1784 278.948 64.7996C278.971 62.4208 278.238 59.1806 277.318 57.6004ZM204.964 72.5518C204.482 70.6666 203.8 67.1967 203.449 64.8396C203.098 62.4837 202.395 60.5551 201.888 60.5551C201.38 60.5551 200.68 62.4837 200.332 64.8396C199.984 67.1967 198.822 72.1805 197.75 75.9155C196.678 79.6505 195.8 83.662 195.8 84.8297C195.8 86.6737 196.503 86.9079 201.127 86.6075L206.453 86.2624L206.146 81.1209C205.977 78.2931 205.445 74.437 204.964 72.5518Z" fill="#F70C13"/>
</svg>
